<svg width="41" height="29" viewBox="0 0 41 29" fill="none" xmlns="http://www.w3.org/2000/svg">
<path d="M0.250243 15.104L13.0627 27.9165C13.3964 28.2502 13.937 28.2502 14.2706 27.9165C14.6042 27.5828 14.6042 27.0423 14.2706 26.7087L2.91612 15.3542L40.1458 15.3542C40.6179 15.3542 41 14.9722 41 14.5C41 14.0279 40.6179 13.6458 40.1458 13.6458L2.91612 13.6458L14.2706 2.29149C14.6042 1.9578 14.6042 1.41727 14.2706 1.08367C14.1038 0.916867 13.8851 0.833426 13.6666 0.833426C13.4481 0.833426 13.2295 0.916867 13.0627 1.08367L0.250163 13.8962C-0.0834439 14.2298 -0.0834439 14.7703 0.250243 15.104Z" fill="#6A6A6A"/>
</svg>
