<svg width="41" height="29" viewBox="0 0 41 29" fill="none" xmlns="http://www.w3.org/2000/svg">
<path d="M40.7498 13.896L27.9373 1.08352C27.6036 0.749831 27.063 0.749831 26.7294 1.08352C26.3958 1.4172 26.3958 1.95773 26.7294 2.29133L38.0839 13.6458H0.854193C0.382053 13.6458 0 14.0278 0 14.5C0 14.9721 0.382053 15.3542 0.854193 15.3542H38.0839L26.7294 26.7085C26.3958 27.0422 26.3958 27.5827 26.7294 27.9163C26.8962 28.0831 27.1149 28.1666 27.3334 28.1666C27.5519 28.1666 27.7705 28.0831 27.9373 27.9163L40.7498 15.1038C41.0834 14.7702 41.0834 14.2297 40.7498 13.896Z" fill="#6A6A6A"/>
</svg>
