<svg width="60" height="52" viewBox="0 0 60 52" fill="none" xmlns="http://www.w3.org/2000/svg">
<path d="M25.8317 35.6988H52.955C56.8396 35.6988 60 32.9736 60 29.624V6.13504C60 2.78543 56.8396 0.0603027 52.955 0.0603027H25.8317C21.9471 0.0603027 18.7867 2.78543 18.7867 6.13504V8.15995H7.04501C3.16039 8.15995 0 10.8851 0 14.2347V45.8233C0 49.1729 3.16039 51.8981 7.04501 51.8981H34.1683C38.0529 51.8981 41.2133 49.1729 41.2133 45.8233V45.8183C39.2495 47.0922 36.8095 47.8482 34.1683 47.8482H7.04501C5.75014 47.8482 4.69667 46.9399 4.69667 45.8233C4.69667 44.7068 5.75014 43.7984 7.04501 43.7984H52.955C56.8396 43.7984 60 41.0733 60 37.7237V37.7186C58.0362 38.9926 55.5962 39.7486 52.955 39.7486H25.8317C24.5368 39.7486 23.4834 38.8402 23.4834 37.7237C23.4834 36.6071 24.5368 35.6988 25.8317 35.6988ZM7.04501 39.7486C6.22204 39.7486 5.43147 39.8709 4.69667 40.0956V14.2347C4.69667 13.1182 5.75014 12.2098 7.04501 12.2098H18.7867V18.1833H9.39335V22.2331H18.7867V37.7237C18.7867 38.4333 18.9285 39.115 19.1891 39.7486H7.04501ZM23.4834 6.13504C23.4834 5.0185 24.5368 4.11013 25.8317 4.11013H52.955C54.2499 4.11013 55.3033 5.0185 55.3033 6.13504V29.624C55.3033 30.7406 54.2499 31.6489 52.955 31.6489H25.8317C25.0087 31.6489 24.2182 31.7712 23.4834 31.9959V6.13504Z" fill="#F33037"/>
</svg>
