<svg width="60" height="60" viewBox="0 0 60 60" fill="none" xmlns="http://www.w3.org/2000/svg">
<path d="M0 0V60H47.1671V0H0ZM16.9073 3.51562H30.2598V10.7912H16.9073V3.51562ZM7.32387 56.4844H3.51562V3.51562H13.3917V6.79688H7.32387V56.4844ZM36.3277 56.4844H10.8395V10.3125H13.3917V14.3068H33.7754V10.3125H36.3277V56.4844ZM43.6515 56.4844H39.8433V6.79688H33.7754V3.51562H43.6515V56.4844Z" fill="#F33037"/>
<path d="M32.1875 23.0859H14.9785V26.6016H32.1875V23.0859Z" fill="#F33037"/>
<path d="M32.1875 30.1172H14.9785V33.6328H32.1875V30.1172Z" fill="#F33037"/>
<path d="M32.1875 37.1484H14.9785V40.6641H32.1875V37.1484Z" fill="#F33037"/>
<path d="M32.1875 44.1797H14.9785V47.6953H32.1875V44.1797Z" fill="#F33037"/>
<path d="M50.0586 10.1367V44.6105L55.0293 50.9559L60 44.6105V10.1367H50.0586ZM56.4843 43.3973L55.0293 45.255L53.5742 43.3973V19.9805H56.4843V43.3973ZM56.4843 16.4648H53.5742V13.6523H56.4843V16.4648Z" fill="#F33037"/>
</svg>
