<svg width="60" height="60" viewBox="0 0 60 60" fill="none" xmlns="http://www.w3.org/2000/svg">
<path d="M54.7266 28.3594H54.722C55.8279 26.8895 56.4844 25.063 56.4844 23.0859C56.4844 18.8416 53.4599 15.2902 49.4531 14.4736V10.5469H53.0859V0H0V10.5469H3.51562V45.9375H24.7266V49.7552C22.6804 50.4813 21.2109 52.435 21.2109 54.7266C21.2109 57.6343 23.5767 60 26.4844 60C29.3921 60 31.7578 57.6343 31.7578 54.7266C31.7578 52.435 30.2884 50.4813 28.2422 49.7552V45.9375H34.4531V60H60V33.6328C60 30.7251 57.6343 28.3594 54.7266 28.3594ZM26.4844 56.4844C25.5153 56.4844 24.7266 55.6956 24.7266 54.7266C24.7266 53.7575 25.5153 52.9688 26.4844 52.9688C27.4535 52.9688 28.2422 53.7575 28.2422 54.7266C28.2422 55.6956 27.4535 56.4844 26.4844 56.4844ZM52.9688 23.0859C52.9688 25.9937 50.603 28.3594 47.6953 28.3594C44.7876 28.3594 42.4219 25.9937 42.4219 23.0859C42.4219 20.1782 44.7876 17.8125 47.6953 17.8125C50.603 17.8125 52.9688 20.1782 52.9688 23.0859ZM3.51562 3.51562H49.5703V7.03125H3.51562V3.51562ZM7.03125 42.4219V10.5469H45.9375V14.4736C41.9307 15.2902 38.9062 18.8416 38.9062 23.0859C38.9062 25.063 39.5627 26.8895 40.6686 28.3594H40.6641C37.7563 28.3594 35.3906 30.7251 35.3906 33.6328V35.3906H30V42.4219H7.03125ZM56.4844 56.4844H37.9688V45.9375H56.4844V56.4844ZM56.4844 42.4219H33.5156V38.9062H56.4844V42.4219ZM38.9062 35.3906V33.6328C38.9062 32.6637 39.695 31.875 40.6641 31.875H54.7266C55.6956 31.875 56.4844 32.6637 56.4844 33.6328V35.3906H38.9062Z" fill="#F33037"/>
</svg>
