<svg width="60" height="60" viewBox="0 0 60 60" fill="none" xmlns="http://www.w3.org/2000/svg">
<path d="M35.2739 37.1473C35.2739 34.2397 32.9083 31.8741 30.0007 31.8741C27.0931 31.8741 24.7275 34.2397 24.7275 37.1473C24.7275 40.0549 27.0931 42.4205 30.0007 42.4205C32.9085 42.4205 35.2739 40.0549 35.2739 37.1473ZM30.0007 38.905C29.0315 38.905 28.243 38.1165 28.243 37.1473C28.243 36.1781 29.0315 35.3896 30.0007 35.3896C30.9699 35.3896 31.7584 36.1781 31.7584 37.1473C31.7584 38.1165 30.9699 38.905 30.0007 38.905Z" fill="#F33037"/>
<path d="M29.9996 42.4205C25.1535 42.4205 21.2109 46.3631 21.2109 51.2091V59.9978H38.7882V51.2091C38.7882 46.3631 34.8457 42.4205 29.9996 42.4205ZM35.2727 56.4823H24.7264V51.2091C24.7264 48.3015 27.0919 45.936 29.9996 45.936C32.9072 45.936 35.2727 48.3015 35.2727 51.2091V56.4823Z" fill="#F33037"/>
<path d="M10.5483 5.2739C10.5483 2.36628 8.18275 0.000732422 5.27512 0.000732422C2.3675 0.000732422 0.00195312 2.36628 0.00195312 5.2739C0.00195312 8.18153 2.3675 10.5471 5.27512 10.5471C8.18275 10.5471 10.5483 8.18153 10.5483 5.2739ZM5.27512 7.03163C4.30591 7.03163 3.5174 6.24311 3.5174 5.2739C3.5174 4.30469 4.30591 3.51618 5.27512 3.51618C6.24433 3.51618 7.03285 4.30469 7.03285 5.2739C7.03285 6.24311 6.24433 7.03163 5.27512 7.03163Z" fill="#F33037"/>
<path d="M40.547 6.42078L38.0612 8.90655L39.819 10.6643H20.1825L21.9402 8.90655L19.4543 6.42078L13.4531 12.422L19.4543 18.4232L21.9402 15.9374L20.1825 14.1797H39.819L38.0612 15.9374L40.547 18.4232L46.5482 12.422L40.547 6.42078Z" fill="#F33037"/>
<path d="M60.0001 39.9362L53.9989 33.9349L47.9977 39.9362L50.4835 42.422L52.2412 40.6643V52.2402H47.6961L49.4538 50.4825L46.968 47.9967L40.9668 53.9979L46.968 59.9993L49.4538 57.5134L47.6961 55.7557H55.7566V40.6643L57.5144 42.422L60.0001 39.9362Z" fill="#F33037"/>
<path d="M10.5463 50.4825L12.3041 52.2402H7.75894V40.6643L9.51666 42.422L12.0026 39.9362L6.00122 33.9349L0 39.9362L2.48577 42.422L4.2435 40.6643V55.7557H12.3041L10.5463 57.5134L13.0321 59.9993L19.0334 53.9979L13.0321 47.9967L10.5463 50.4825Z" fill="#F33037"/>
<path d="M10.5483 15.8202C10.5483 12.9125 8.18275 10.547 5.27512 10.547C2.3675 10.547 0.00195312 12.9125 0.00195312 15.8202V28.1242H10.5483V15.8202ZM7.03285 24.6088H3.5174V15.8202C3.5174 14.851 4.30591 14.0624 5.27512 14.0624C6.24433 14.0624 7.03285 14.851 7.03285 15.8202V24.6088Z" fill="#F33037"/>
<path d="M59.9985 5.2739C59.9985 2.36628 57.6329 0.000732422 54.7253 0.000732422C51.8177 0.000732422 49.4521 2.36628 49.4521 5.2739C49.4521 8.18153 51.8177 10.5471 54.7253 10.5471C57.6329 10.5471 59.9985 8.18153 59.9985 5.2739ZM54.7253 7.03163C53.7561 7.03163 52.9676 6.24311 52.9676 5.2739C52.9676 4.30469 53.7561 3.51618 54.7253 3.51618C55.6945 3.51618 56.483 4.30469 56.483 5.2739C56.483 6.24311 55.6946 7.03163 54.7253 7.03163Z" fill="#F33037"/>
<path d="M59.9985 15.8202C59.9985 12.9125 57.6329 10.547 54.7253 10.547C51.8177 10.547 49.4521 12.9125 49.4521 15.8202V28.1242H59.9985V15.8202ZM56.483 24.6088H52.9676V15.8202C52.9676 14.851 53.7561 14.0624 54.7253 14.0624C55.6945 14.0624 56.483 14.851 56.483 15.8202V24.6088Z" fill="#F33037"/>
</svg>
