<svg width="55" height="55" viewBox="0 0 55 55" fill="none" xmlns="http://www.w3.org/2000/svg">
    <path d="M55 27.5C55 42.688 42.688 55 27.5 55C12.312 55 0 42.688 0 27.5C0 12.312 12.312 0 27.5 0C42.688 0 55 12.312 55 27.5Z" fill="url(#paint0_linear)"/>
    <path d="M35.4102 46.5137H19.5898C13.4672 46.5137 8.48633 41.5328 8.48633 35.4102V19.5898C8.48633 13.4672 13.4672 8.48633 19.5898 8.48633H35.4102C41.5328 8.48633 46.5137 13.4672 46.5137 19.5898V35.4102C46.5137 41.5328 41.5328 46.5137 35.4102 46.5137ZM19.5898 11.709C15.2443 11.709 11.709 15.2443 11.709 19.5898V35.4102C11.709 39.7557 15.2443 43.291 19.5898 43.291H35.4102C39.7557 43.291 43.291 39.7557 43.291 35.4102V19.5898C43.291 15.2443 39.7557 11.709 35.4102 11.709H19.5898Z" fill="white"/>
    <path d="M27.5 37.8125C21.8138 37.8125 17.1875 33.1862 17.1875 27.5C17.1875 21.8138 21.8138 17.1875 27.5 17.1875C33.1862 17.1875 37.8125 21.8138 37.8125 27.5C37.8125 33.1862 33.1862 37.8125 27.5 37.8125ZM27.5 20.4102C23.5904 20.4102 20.4102 23.5904 20.4102 27.5C20.4102 31.4096 23.5904 34.5898 27.5 34.5898C31.4096 34.5898 34.5898 31.4096 34.5898 27.5C34.5898 23.5904 31.4096 20.4102 27.5 20.4102Z" fill="white"/>
    <path d="M39.2985 17.1766C39.2985 17.9911 38.6381 18.6515 37.8236 18.6515C37.0091 18.6515 36.3486 17.9911 36.3486 17.1766C36.3486 16.3621 37.0091 15.7016 37.8236 15.7016C38.6381 15.7016 39.2985 16.3621 39.2985 17.1766Z" fill="white"/>
    <defs>
        <linearGradient id="paint0_linear" x1="0" y1="27.5" x2="55" y2="27.5" gradientUnits="userSpaceOnUse">
            <stop stop-color="#00F38D"/>
            <stop offset="1" stop-color="#009EFF"/>
        </linearGradient>
    </defs>
</svg>
