<svg width="20" height="20" viewBox="0 0 20 20" fill="none" xmlns="http://www.w3.org/2000/svg">
<path d="M9.01955 9.89736C9.54178 10.2455 10.4581 10.2456 10.9805 9.89732C10.9805 9.89728 10.9807 9.89721 10.9807 9.89717L19.8818 3.9631C19.5898 3.11872 18.7873 2.51044 17.845 2.51044H2.15489C1.2125 2.51044 0.410036 3.11872 0.118042 3.9631L9.01928 9.89721C9.0194 9.89728 9.01947 9.89728 9.01955 9.89736Z" fill="#17B59E"/>
<path d="M11.6308 10.8723C11.6307 10.8723 11.6306 10.8724 11.6305 10.8725C11.1734 11.1772 10.5866 11.3296 10 11.3296C9.41327 11.3296 8.82671 11.1772 8.36955 10.8724C8.36948 10.8724 8.36944 10.8723 8.36936 10.8723L0 5.29277V15.3347C0 16.5229 0.966687 17.4895 2.15494 17.4895H17.8451C19.0333 17.4895 20 16.5229 20 15.3347V5.29277L11.6308 10.8723Z" fill="#17B59E"/>
</svg>
