<svg width="60" height="60" viewBox="0 0 60 60" fill="none" xmlns="http://www.w3.org/2000/svg">
<path d="M60 60C60 51.9913 56.8777 44.4768 51.2084 38.8405C47.9189 35.5703 43.9955 33.1561 39.7122 31.7062C44.314 28.5845 47.3438 23.3114 47.3438 17.3438C47.3438 7.78043 39.5633 0 30 0C20.4367 0 12.6562 7.78043 12.6562 17.3438C12.6562 23.3114 15.686 28.5845 20.2879 31.7062C16.0046 33.1561 12.0812 35.5703 8.79164 38.8405C3.12234 44.4768 0 51.9913 0 60H4.6875C4.6875 55.1948 6.04664 50.7 8.40141 46.875H13.0078V51.8962L27.6562 59.921V60H32.3438V59.921L46.9922 51.8962V46.875H51.5986C53.9534 50.7 55.3125 55.1948 55.3125 60H60ZM17.3438 17.3438C17.3438 10.3651 23.0214 4.6875 30 4.6875C36.9786 4.6875 42.6562 10.3651 42.6562 17.3438C42.6562 24.3224 36.9786 30 30 30C23.0214 30 17.3438 24.3224 17.3438 17.3438ZM36.7891 35.7264L30 52.2952L23.2109 35.7264C25.3724 35.1266 27.649 34.8047 30 34.8047C32.351 34.8047 34.6276 35.1266 36.7891 35.7264ZM12.115 42.1875C14.0652 40.2475 16.3318 38.6231 18.829 37.3955L25.3516 53.3138L17.6953 49.1194V42.1875H12.115ZM42.3047 42.1875V49.1194L34.6484 53.3138L41.171 37.3955C43.6682 38.6231 45.9348 40.2475 47.885 42.1875H42.3047Z" fill="#F33037"/>
</svg>
