<svg width="27" height="35" viewBox="0 0 27 35" fill="none" xmlns="http://www.w3.org/2000/svg">
<path d="M13.5 0C6.26245 0 0.375 5.88813 0.375 13.125C0.375 22.8078 12.4846 34.3164 13.0002 34.802C13.1411 34.9338 13.3206 35 13.5 35C13.6794 35 13.8589 34.9338 13.9999 34.802C14.5154 34.3164 26.625 22.8078 26.625 13.125C26.625 5.88813 20.7375 0 13.5 0ZM13.5 20.4167C9.47958 20.4167 6.20831 17.1454 6.20831 13.125C6.20831 9.10458 9.47965 5.83331 13.5 5.83331C17.5204 5.83331 20.7917 9.10465 20.7917 13.125C20.7917 17.1454 17.5204 20.4167 13.5 20.4167Z" fill="#17B59E"/>
</svg>
