<svg width="60" height="60" viewBox="0 0 60 60" fill="none" xmlns="http://www.w3.org/2000/svg">
<path d="M50.4887 25.06H40.7525V21.5582L51.1198 21.4082L40.7298 9.02034C40.3864 3.99909 36.192 0.019165 31.0852 0.019165H9.66738C4.33676 0.019165 0 4.35592 0 9.68655V25.2728C0 30.6035 4.33676 34.9402 9.66738 34.9402H19.2475V39.804L9.30035 52.107H19.4071C19.7527 53.9856 20.6508 55.7237 22.0202 57.1223C23.8253 58.9658 26.2184 59.981 28.7588 59.981H50.4888C55.7333 59.981 60.0001 55.7142 60.0001 50.4697V34.5713C60 29.3268 55.7333 25.06 50.4887 25.06ZM3.51375 25.2728V9.68655C3.51375 6.29338 6.27434 3.53291 9.66738 3.53291H31.0853C34.4783 3.53291 37.2389 6.2935 37.2389 9.68655V10.3258L43.6768 18.0017L37.2389 18.0949V25.0598H28.7588C24.6161 25.0598 21.0857 27.723 19.7842 31.4263H9.66738C6.27422 31.4266 3.51375 28.666 3.51375 25.2728ZM56.4862 50.4697C56.4862 53.7767 53.7957 56.4672 50.4887 56.4672H28.7586C27.1709 56.4672 25.6693 55.8268 24.5307 54.6639C23.3896 53.4985 22.7611 51.9665 22.7611 50.3501V48.5933H16.6597L22.7611 41.0467V34.5712C22.7611 31.2642 25.4516 28.5737 28.7586 28.5737H50.4887C53.7957 28.5737 56.4862 31.2642 56.4862 34.5712V50.4697Z" fill="#F33037"/>
<path d="M30.8711 40.6938H34.3848V44.2078H30.8711V40.6938Z" fill="#F33037"/>
<path d="M38.1562 40.6938H41.67V44.2078H38.1562V40.6938Z" fill="#F33037"/>
<path d="M45.1836 40.6938H48.6973V44.2078H45.1836V40.6938Z" fill="#F33037"/>
<path d="M11.501 14.9233H15.0147V18.4373H11.501V14.9233Z" fill="#F33037"/>
<path d="M18.7852 14.9233H22.2989V18.4373H18.7852V14.9233Z" fill="#F33037"/>
<path d="M25.8125 14.9233H29.3263V18.4373H25.8125V14.9233Z" fill="#F33037"/>
</svg>
