<svg width="60" height="60" viewBox="0 0 60 60" fill="none" xmlns="http://www.w3.org/2000/svg">
<path d="M11.7188 14.0625C15.596 14.0625 18.75 10.9085 18.75 7.03125C18.75 3.15399 15.596 0 11.7188 0C7.84149 0 4.6875 3.15399 4.6875 7.03125C4.6875 10.9085 7.84149 14.0625 11.7188 14.0625ZM11.7188 4.6875C13.011 4.6875 14.0625 5.73898 14.0625 7.03125C14.0625 8.32352 13.011 9.375 11.7188 9.375C10.4265 9.375 9.375 8.32352 9.375 7.03125C9.375 5.73898 10.4265 4.6875 11.7188 4.6875ZM48.2812 14.0625C52.1585 14.0625 55.3125 10.9085 55.3125 7.03125C55.3125 3.15399 52.1585 0 48.2812 0C44.404 0 41.25 3.15399 41.25 7.03125C41.25 10.9085 44.404 14.0625 48.2812 14.0625ZM48.2812 4.6875C49.5735 4.6875 50.625 5.73898 50.625 7.03125C50.625 8.32352 49.5735 9.375 48.2812 9.375C46.989 9.375 45.9375 8.32352 45.9375 7.03125C45.9375 5.73898 46.989 4.6875 48.2812 4.6875ZM27.2113 42.8906H45.9375V60H41.25V47.5781H27.1005L30.0526 50.4918L26.7595 53.828L18.1087 45.2888L26.83 36.6806L30.1231 40.0168L27.2113 42.8906ZM4.6875 38.3203H9.375V60H4.6875V43.0078H0V23.3203C0 19.4431 3.15399 16.2891 7.03125 16.2891H16.4062C20.2835 16.2891 23.4375 19.4431 23.4375 23.3203V25.7812H32.7045L29.7597 22.8749L33.0528 19.5387L41.7741 28.147L33.1233 36.6861L29.8302 33.3499L32.7493 30.4688H18.75V23.3203C18.75 22.028 17.6985 20.9766 16.4062 20.9766H7.03125C5.73898 20.9766 4.6875 22.028 4.6875 23.3203V38.3203ZM14.0625 47.8812L18.75 52.5082V60H14.0625V47.8812ZM60 23.3203V43.0078H55.3125V60H50.625V38.3203H55.3125V23.3203C55.3125 22.028 54.261 20.9766 52.9688 20.9766H43.5938C42.9327 20.9766 42.3349 21.2521 41.9087 21.6934L38.5757 18.4039C39.8524 17.1007 41.6295 16.2891 43.5938 16.2891H52.9688C56.846 16.2891 60 19.4431 60 23.3203Z" fill="#F33037"/>
</svg>
