<svg width="60" height="60" viewBox="0 0 60 60" fill="none" xmlns="http://www.w3.org/2000/svg">
<path d="M38.9062 30.1174H43.5938C43.5938 37.6129 37.4959 43.7112 30 43.7112C22.5041 43.7112 16.4062 37.6129 16.4062 30.1174H21.0938C21.0938 35.0283 25.0891 39.0237 30 39.0237C34.9109 39.0237 38.9062 35.0283 38.9062 30.1174ZM57.0094 29.7398L55.6934 30.1174H55.3125V30.2268L48.0505 32.311L47.7635 33.6981C47.3048 35.9136 46.4319 38.0125 45.1689 39.936L44.3774 41.1418L48.0853 47.5825L47.5822 48.0856L41.1415 44.3772L39.9358 45.1687C38.0122 46.4317 35.9134 47.3046 33.6978 47.7633L32.2801 48.0572L30.3502 55.3127H29.6498L27.7199 48.0572L26.3022 47.7638C24.0862 47.3051 21.9878 46.4321 20.0638 45.1692L18.858 44.3777L12.4173 48.0856L11.9142 47.5825L15.6226 41.1422L14.8311 39.9365C13.5681 38.0125 12.6952 35.9141 12.2365 33.6981L11.9495 32.3115L4.6875 30.2268V30.1174H4.30664L2.99057 29.7398L2.88208 30.1174H0V33.758L7.9834 36.0496C8.4819 37.8646 9.20609 39.6082 10.1468 41.2585L6.05988 48.357L11.6432 53.9404L18.7418 49.8535C20.3828 50.7891 22.1159 51.5101 23.9204 52.0086L26.0463 60.0002H33.9537L36.0796 52.0086C37.8841 51.5101 39.6172 50.7891 41.2582 49.8535L48.3568 53.9404L53.9401 48.357L49.8532 41.2585C50.7939 39.6082 51.5181 37.8646 52.0166 36.0496L60 33.758V30.1174H57.1179L57.0094 29.7398ZM4.6875 25.4299H0C0 21.1251 2.36526 17.3628 5.86395 15.3724C5.12146 14.2578 4.6875 12.9211 4.6875 11.4846C4.6875 7.60736 7.84149 4.45337 11.7188 4.45337C15.596 4.45337 18.75 7.60736 18.75 11.4846C18.75 12.9733 18.2835 14.3548 17.4911 15.4928C18.1755 15.9007 18.8168 16.3799 19.4051 16.9238C20.5655 15.4809 22.0143 14.2793 23.6632 13.4068C22.4977 11.99 21.7969 10.1768 21.7969 8.20337C21.7969 3.68021 25.4768 0.000244141 30 0.000244141C34.5232 0.000244141 38.2031 3.68021 38.2031 8.20337C38.2031 10.1768 37.5023 11.99 36.3368 13.4068C37.9857 14.2793 39.4345 15.4809 40.5954 16.9238C41.1836 16.3799 41.825 15.9007 42.5093 15.4928C41.7165 14.3548 41.25 12.9733 41.25 11.4846C41.25 7.60736 44.404 4.45337 48.2812 4.45337C52.1585 4.45337 55.3125 7.60736 55.3125 11.4846C55.3125 12.9211 54.8785 14.2578 54.136 15.3724C57.6347 17.3628 60 21.1251 60 25.4299H55.3125C55.3125 21.6392 52.2285 18.5548 48.4373 18.5548C46.2433 18.5548 44.2328 19.5774 42.9474 21.2876C43.3667 22.5941 43.5938 23.9861 43.5938 25.4299H38.9062C38.9062 20.519 34.9109 16.5237 30 16.5237C25.0891 16.5237 21.0938 20.519 21.0938 25.4299H16.4062C16.4062 23.9861 16.6333 22.5941 17.0526 21.2876C15.7672 19.5774 13.7567 18.5552 11.5627 18.5552C7.77145 18.5548 4.6875 21.6392 4.6875 25.4299ZM45.9375 11.4846C45.9375 12.7769 46.989 13.8284 48.2812 13.8284C49.5735 13.8284 50.625 12.7769 50.625 11.4846C50.625 10.1924 49.5735 9.14087 48.2812 9.14087C46.989 9.14087 45.9375 10.1924 45.9375 11.4846ZM26.4844 8.20337C26.4844 10.142 28.0614 11.719 30 11.719C31.9386 11.719 33.5156 10.142 33.5156 8.20337C33.5156 6.26474 31.9386 4.68774 30 4.68774C28.0614 4.68774 26.4844 6.26474 26.4844 8.20337ZM9.375 11.4846C9.375 12.7769 10.4265 13.8284 11.7188 13.8284C13.011 13.8284 14.0625 12.7769 14.0625 11.4846C14.0625 10.1924 13.011 9.14087 11.7188 9.14087C10.4265 9.14087 9.375 10.1924 9.375 11.4846Z" fill="#F33037"/>
</svg>
