<svg width="35" height="35" viewBox="0 0 35 35" fill="none" xmlns="http://www.w3.org/2000/svg">
    <path d="M14.4931 20.507C11.1524 17.1663 10.3981 13.8256 10.2279 12.4872C10.1804 12.1171 10.3077 11.7459 10.5725 11.483L13.276 8.78079C13.6736 8.38335 13.7442 7.76396 13.4461 7.28725L9.14173 0.60346C8.81196 0.075593 8.13484 -0.11492 7.5782 0.163546L0.668113 3.41794C0.217976 3.63959 -0.0467884 4.11785 0.00431972 4.61699C0.366389 8.05665 1.86596 16.5122 10.1754 24.8223C18.4849 33.1323 26.9392 34.6313 30.3807 34.9934C30.8798 35.0445 31.3581 34.7797 31.5798 34.3296L34.8341 27.4195C35.1116 26.8641 34.9223 26.1888 34.3966 25.8584L27.7129 21.5552C27.2364 21.2568 26.6171 21.3269 26.2193 21.7241L23.5171 24.4276C23.2542 24.6924 22.883 24.8197 22.5129 24.7722C21.1745 24.602 17.8338 23.8477 14.4931 20.507Z" fill="#17B59E"/>
    <path d="M25.9482 0C20.9492 0 16.8965 3.51207 16.8965 7.84483C16.9046 9.43458 17.4466 10.9755 18.4353 12.2204L17.4999 16.8966L22.2454 14.9981C23.4261 15.4565 24.6817 15.6911 25.9482 15.6897C30.9472 15.6897 34.9999 12.1776 34.9999 7.84483C34.9999 3.51207 30.9472 0 25.9482 0ZM21.1206 9.05173C20.4541 9.05173 19.9137 8.51138 19.9137 7.84483C19.9137 7.17828 20.4541 6.63793 21.1206 6.63793C21.7872 6.63793 22.3275 7.17828 22.3275 7.84483C22.3275 8.51138 21.7872 9.05173 21.1206 9.05173ZM25.9482 9.05173C25.2817 9.05173 24.7413 8.51138 24.7413 7.84483C24.7413 7.17828 25.2817 6.63793 25.9482 6.63793C26.6148 6.63793 27.1551 7.17828 27.1551 7.84483C27.1551 8.51138 26.6148 9.05173 25.9482 9.05173ZM30.7758 9.05173C30.1092 9.05173 29.5689 8.51138 29.5689 7.84483C29.5689 7.17828 30.1092 6.63793 30.7758 6.63793C31.4423 6.63793 31.9827 7.17828 31.9827 7.84483C31.9827 8.51138 31.4423 9.05173 30.7758 9.05173Z" fill="#17B59E"/>
</svg>
