<svg width="55" height="55" viewBox="0 0 55 55" fill="none" xmlns="http://www.w3.org/2000/svg">
    <path d="M27.5 55C42.6878 55 55 42.6878 55 27.5C55 12.3122 42.6878 0 27.5 0C12.3122 0 0 12.3122 0 27.5C0 42.6878 12.3122 55 27.5 55Z" fill="#4D76A1"/>
    <path fill-rule="evenodd" clip-rule="evenodd" d="M26.461 39.5612H28.6194C28.6194 39.5612 29.2714 39.4897 29.6042 39.1308C29.9106 38.8014 29.9008 38.1828 29.9008 38.1828C29.9008 38.1828 29.8587 35.2866 31.2028 34.8601C32.5279 34.44 34.2294 37.6592 36.0329 38.897C37.3967 39.8338 38.433 39.6284 38.433 39.6284L43.2552 39.5612C43.2552 39.5612 45.7778 39.4058 44.5817 37.4224C44.4837 37.2602 43.8851 35.9552 40.9963 33.2738C37.9727 30.4673 38.3776 30.9212 42.0199 26.0666C44.2381 23.1102 45.1249 21.3052 44.8479 20.5321C44.5837 19.7958 42.9523 19.9904 42.9523 19.9904L37.5226 20.0243C37.5226 20.0243 37.1202 19.9694 36.8216 20.1478C36.53 20.3228 36.3422 20.7307 36.3422 20.7307C36.3422 20.7307 35.4829 23.0185 34.3368 24.9641C31.919 29.0697 30.9523 29.2864 30.5572 29.0314C29.6381 28.4373 29.8675 26.6446 29.8675 25.371C29.8675 21.3924 30.4709 19.7336 28.6924 19.3041C28.1022 19.1615 27.6679 19.0674 26.1585 19.0522C24.2212 19.0321 22.5814 19.058 21.653 19.513C21.0353 19.8154 20.5588 20.4895 20.849 20.5282C21.2079 20.5762 22.0206 20.7473 22.4515 21.3341C23.0079 22.091 22.9883 23.7911 22.9883 23.7911C22.9883 23.7911 23.3079 28.4746 22.2417 29.0564C21.5098 29.4555 20.5059 28.6407 18.3504 24.9161C17.2459 23.0082 16.4121 20.8993 16.4121 20.8993C16.4121 20.8993 16.2513 20.5052 15.9645 20.2944C15.6165 20.039 15.1302 19.9576 15.1302 19.9576L9.97069 19.9914C9.97069 19.9914 9.19615 20.013 8.91183 20.3498C8.65888 20.6493 8.89173 21.2689 8.89173 21.2689C8.89173 21.2689 12.9311 30.7192 17.5048 35.4817C21.6986 39.848 26.461 39.5612 26.461 39.5612Z" fill="white"/>
</svg>
